<svg width="1366" height="1925" viewBox="0 0 1366 1925" fill="none" xmlns="http://www.w3.org/2000/svg">
<path d="M410.355 975.245C491.074 972.836 390.564 851.543 330.219 791.198C311.683 774.093 256.886 733.916 185.988 710.051C-257.955 587.724 -95.9792 731.371 40.5016 818.486C130.153 871.742 329.636 977.653 410.355 975.245Z" fill="#D629EB"/>
<path d="M1084.5 422.527C681.882 694.294 816.192 309.291 933.674 82.8195C1116.34 -136.583 1338.66 -67.5072 1426.99 -5.54382C1480.59 23.9106 1487.11 150.761 1084.5 422.527Z" fill="#7F37FF"/>
<path d="M1315.68 1316.8C1490.35 1770.06 1145.22 1552.92 950.821 1387.69C777.915 1160.52 895.041 959.316 975.217 887.112C1015.93 841.481 1141.02 863.536 1315.68 1316.8Z" fill="#3F239F"/>
<path d="M316.114 541.916C205.52 623.083 194.048 665.338 202.136 676.319C167.89 736.612 160.541 749.915 161.148 749.03C137.604 795.113 77.7982 830.993 26.9209 605.849C-23.9564 380.705 203.88 348.425 324.157 360.429C367.557 387.104 426.708 460.748 316.114 541.916Z" fill="#3D37FF"/>
<path d="M1303.3 532.219C1032.6 541.616 1066.87 431.035 1117.85 374.57C1188.72 125.782 1402.7 241.134 1500.84 329.909C1547.78 393.43 1573.99 522.822 1303.3 532.219Z" fill="#D629EB"/>
<path d="M214.297 1839.22C-56.3975 1848.62 -22.1265 1738.03 28.8458 1681.57C99.7195 1432.78 313.704 1548.13 411.838 1636.91C458.78 1700.43 484.991 1829.82 214.297 1839.22Z" fill="#9937FF"/>
<path d="M941.879 358.317C847.767 307.067 720.354 416.039 668.412 476.931C655.273 495.115 636.877 545.097 668.412 599.55C919.213 930.669 1022.56 773.885 1042.89 654.102C1048.43 576.861 1035.99 409.566 941.879 358.317Z" fill="#020106"/>
<path d="M229.83 465.392C148.992 449.138 211.683 595.401 253.133 670.564C266.302 692.202 308.407 745.63 371.473 786.249C774.655 1013.11 657.798 829.941 548.971 710.001C476.273 635.237 310.667 481.646 229.83 465.392Z" fill="#9937FF"/>
</svg>
