<svg width="1366" height="2106" viewBox="0 0 1366 2106" fill="none" xmlns="http://www.w3.org/2000/svg">
<path d="M410.356 1195.24C491.075 1192.84 390.564 1071.54 330.219 1011.2C311.683 994.093 256.887 953.916 185.989 930.051C-257.955 807.724 -95.9789 951.371 40.5018 1038.49C130.153 1091.74 329.636 1197.65 410.356 1195.24Z" fill="#D629EB"/>
<path d="M1084.5 642.527C681.882 914.294 816.192 529.291 933.674 302.82C1116.34 83.4166 1338.66 152.493 1426.99 214.456C1480.59 243.911 1487.11 370.761 1084.5 642.527Z" fill="#7F37FF"/>
<path d="M1315.68 1536.8C1490.35 1990.06 1145.22 1772.92 950.821 1607.69C777.915 1380.52 895.041 1179.32 975.217 1107.11C1015.93 1061.48 1141.02 1083.54 1315.68 1536.8Z" fill="#3F239F"/>
<path d="M316.114 761.916C205.52 843.083 194.048 885.338 202.136 896.319C167.89 956.612 160.541 969.915 161.148 969.03C137.604 1015.11 77.7982 1050.99 26.9209 825.849C-23.9564 600.705 203.88 568.425 324.157 580.429C367.557 607.104 426.708 680.748 316.114 761.916Z" fill="#3D37FF"/>
<path d="M1303.3 752.219C1032.6 761.616 1066.87 651.035 1117.85 594.57C1188.72 345.782 1402.7 461.134 1500.84 549.909C1547.78 613.43 1573.99 742.822 1303.3 752.219Z" fill="#D629EB"/>
<path d="M214.297 2059.22C-56.3975 2068.62 -22.1265 1958.03 28.8458 1901.57C99.7195 1652.78 313.704 1768.13 411.838 1856.91C458.78 1920.43 484.991 2049.82 214.297 2059.22Z" fill="#9937FF"/>
<path d="M973.879 3.05724C879.767 -8.70865 752.354 16.3092 700.412 30.2888C687.273 34.4636 668.877 45.9384 700.412 58.4396C951.213 134.458 1054.56 98.4636 1074.89 70.9639C1080.43 53.2308 1067.99 14.8231 973.879 3.05724Z" fill="#020106"/>
<path d="M229.83 685.392C148.992 669.138 211.683 815.401 253.133 890.564C266.302 912.202 308.407 965.63 371.473 1006.25C774.655 1233.11 657.798 1049.94 548.971 930.001C476.273 855.237 310.667 701.646 229.83 685.392Z" fill="#9937FF"/>
</svg>
