<svg width="1366" height="1953" viewBox="0 0 1366 1953" fill="none" xmlns="http://www.w3.org/2000/svg">
<path d="M410.355 1042.24C491.074 1039.84 390.564 918.543 330.219 858.198C311.683 841.093 256.886 800.916 185.988 777.051C-257.955 654.724 -95.9792 798.371 40.5016 885.486C130.153 938.742 329.636 1044.65 410.355 1042.24Z" fill="#D629EB"/>
<path d="M1084.5 489.527C681.882 761.294 816.192 376.291 933.674 149.82C1116.34 -69.5834 1338.66 -0.507242 1426.99 61.4562C1480.59 90.9106 1487.11 217.761 1084.5 489.527Z" fill="#7F37FF"/>
<path d="M1315.68 1383.8C1490.35 1837.06 1145.22 1619.92 950.821 1454.69C777.915 1227.52 895.041 1026.32 975.217 954.112C1015.93 908.481 1141.02 930.536 1315.68 1383.8Z" fill="#3F239F"/>
<path d="M316.114 608.916C205.52 690.083 194.048 732.338 202.136 743.319C167.89 803.612 160.541 816.915 161.148 816.03C137.604 862.113 77.7982 897.993 26.9209 672.849C-23.9564 447.705 203.88 415.425 324.157 427.429C367.557 454.104 426.708 527.748 316.114 608.916Z" fill="#3D37FF"/>
<path d="M1303.3 599.219C1032.6 608.616 1066.87 498.035 1117.85 441.57C1188.72 192.782 1402.7 308.134 1500.84 396.909C1547.78 460.43 1573.99 589.822 1303.3 599.219Z" fill="#D629EB"/>
<path d="M214.297 1906.22C-56.3975 1915.62 -22.1265 1805.03 28.8458 1748.57C99.7195 1499.78 313.704 1615.13 411.838 1703.91C458.78 1767.43 484.991 1896.82 214.297 1906.22Z" fill="#9937FF"/>
<path d="M941.879 425.317C847.767 374.067 720.354 483.039 668.412 543.931C655.273 562.115 636.877 612.097 668.412 666.55C919.213 997.669 1022.56 840.885 1042.89 721.102C1048.43 643.861 1035.99 476.566 941.879 425.317Z" fill="#020106"/>
<path d="M229.83 532.392C148.992 516.138 211.683 662.401 253.133 737.564C266.302 759.202 308.407 812.63 371.473 853.249C774.655 1080.11 657.798 896.941 548.971 777.001C476.273 702.237 310.667 548.646 229.83 532.392Z" fill="#9937FF"/>
</svg>
