<svg width="600" height="3123" viewBox="0 0 600 3123" fill="none" xmlns="http://www.w3.org/2000/svg">
<g filter="url(#filter0_f_244_38)">
<path d="M8.18701 2821.87C-304.151 2832.71 -264.608 2705.12 -205.794 2639.96C-124.017 2352.9 122.887 2486 236.118 2588.43C290.281 2661.73 320.525 2811.02 8.18701 2821.87Z" fill="#9937FF" fill-opacity="0.9"/>
</g>
<g filter="url(#filter1_f_244_38)">
<path d="M-500.17 685.392C-581.008 669.138 -518.317 815.401 -476.867 890.564C-463.698 912.202 -421.593 965.63 -358.527 1006.25C44.6553 1233.11 -72.2023 1049.94 -181.029 930.001C-253.727 855.237 -419.333 701.646 -500.17 685.392Z" fill="#9937FF" fill-opacity="0.9"/>
</g>
<g filter="url(#filter2_f_244_38)">
<path d="M354.498 642.527C-48.1178 914.294 86.1922 529.291 203.674 302.82C386.339 83.4166 608.664 152.493 696.994 214.456C750.585 243.911 757.114 370.761 354.498 642.527Z" fill="#7F37FF"/>
</g>
<g filter="url(#filter3_f_244_38)">
<path d="M286.35 36.1058C174.197 56.1503 211.611 27.7539 244.336 11.0502C295.22 -5.13222 357.151 -0.0374124 381.756 4.53279C396.684 6.70524 398.503 16.0613 286.35 36.1058Z" fill="#020106" fill-opacity="0.9"/>
</g>
<g filter="url(#filter4_f_244_38)">
<path d="M678.683 1971.8C853.348 2425.06 508.219 2207.92 313.821 2042.69C140.915 1815.52 258.041 1614.32 338.217 1542.11C378.928 1496.48 504.017 1518.54 678.683 1971.8Z" fill="#3F239F"/>
</g>
<g filter="url(#filter5_f_244_38)">
<path d="M221.972 1809.68C87.323 1920.03 73.3558 1977.47 83.203 1992.4C41.5082 2074.37 32.5607 2092.46 33.2997 2091.26C4.63469 2153.91 -68.1794 2202.69 -130.123 1896.6C-192.066 1590.5 85.3263 1546.61 231.765 1562.93C284.604 1599.2 356.621 1699.32 221.972 1809.68Z" fill="#3D37FF"/>
</g>
<g filter="url(#filter6_f_244_38)">
<path d="M116.741 1705.7C18.2906 1683.58 94.64 1882.6 145.121 1984.88C161.159 2014.32 212.437 2087.02 289.243 2142.29C780.266 2450.97 637.949 2201.74 505.412 2038.54C416.876 1936.81 215.189 1727.82 116.741 1705.7Z" fill="#D629EB" fill-opacity="0.9"/>
</g>
<g filter="url(#filter7_f_244_38)">
<path d="M573.297 752.219C302.602 761.616 336.873 651.035 387.846 594.57C458.72 345.782 672.704 461.134 770.838 549.909C817.78 613.43 843.991 742.822 573.297 752.219Z" fill="#D629EB" fill-opacity="0.9"/>
</g>
<g filter="url(#filter8_f_244_38)">
<path d="M211.879 547.317C117.767 496.067 -9.64576 605.039 -61.588 665.931C-74.7275 684.115 -93.1228 734.097 -61.588 788.55C189.213 1119.67 292.563 962.885 312.889 843.102C318.432 765.861 305.99 598.566 211.879 547.317Z" fill="#020106" fill-opacity="0.9"/>
</g>
<defs>
<filter id="filter0_f_244_38" x="-546.32" y="2166.6" width="1116.87" height="955.919" filterUnits="userSpaceOnUse" color-interpolation-filters="sRGB">
<feFlood flood-opacity="0" result="BackgroundImageFix"/>
<feBlend mode="normal" in="SourceGraphic" in2="BackgroundImageFix" result="shape"/>
<feGaussianBlur stdDeviation="150" result="effect1_foregroundBlur_244_38"/>
</filter>
<filter id="filter1_f_244_38" x="-839.371" y="384.142" width="1062.28" height="1029.93" filterUnits="userSpaceOnUse" color-interpolation-filters="sRGB">
<feFlood flood-opacity="0" result="BackgroundImageFix"/>
<feBlend mode="normal" in="SourceGraphic" in2="BackgroundImageFix" result="shape"/>
<feGaussianBlur stdDeviation="150" result="effect1_foregroundBlur_244_38"/>
</filter>
<filter id="filter2_f_244_38" x="-216" y="-147" width="1239" height="1183" filterUnits="userSpaceOnUse" color-interpolation-filters="sRGB">
<feFlood flood-opacity="0" result="BackgroundImageFix"/>
<feBlend mode="normal" in="SourceGraphic" in2="BackgroundImageFix" result="shape"/>
<feGaussianBlur stdDeviation="150" result="effect1_foregroundBlur_244_38"/>
</filter>
<filter id="filter3_f_244_38" x="-89" y="-300" width="778" height="643" filterUnits="userSpaceOnUse" color-interpolation-filters="sRGB">
<feFlood flood-opacity="0" result="BackgroundImageFix"/>
<feBlend mode="normal" in="SourceGraphic" in2="BackgroundImageFix" result="shape"/>
<feGaussianBlur stdDeviation="150" result="effect1_foregroundBlur_244_38"/>
</filter>
<filter id="filter4_f_244_38" x="-75.5928" y="1225.68" width="1102.14" height="1316.61" filterUnits="userSpaceOnUse" color-interpolation-filters="sRGB">
<feFlood flood-opacity="0" result="BackgroundImageFix"/>
<feBlend mode="normal" in="SourceGraphic" in2="BackgroundImageFix" result="shape"/>
<feGaussianBlur stdDeviation="150" result="effect1_foregroundBlur_244_38"/>
</filter>
<filter id="filter5_f_244_38" x="-439" y="1260" width="1038" height="1178" filterUnits="userSpaceOnUse" color-interpolation-filters="sRGB">
<feFlood flood-opacity="0" result="BackgroundImageFix"/>
<feBlend mode="normal" in="SourceGraphic" in2="BackgroundImageFix" result="shape"/>
<feGaussianBlur stdDeviation="150" result="effect1_foregroundBlur_244_38"/>
</filter>
<filter id="filter6_f_244_38" x="-231" y="1404" width="1163" height="1185" filterUnits="userSpaceOnUse" color-interpolation-filters="sRGB">
<feFlood flood-opacity="0" result="BackgroundImageFix"/>
<feBlend mode="normal" in="SourceGraphic" in2="BackgroundImageFix" result="shape"/>
<feGaussianBlur stdDeviation="150" result="effect1_foregroundBlur_244_38"/>
</filter>
<filter id="filter7_f_244_38" x="102.723" y="194.317" width="947.958" height="808.465" filterUnits="userSpaceOnUse" color-interpolation-filters="sRGB">
<feFlood flood-opacity="0" result="BackgroundImageFix"/>
<feBlend mode="normal" in="SourceGraphic" in2="BackgroundImageFix" result="shape"/>
<feGaussianBlur stdDeviation="125" result="effect1_foregroundBlur_244_38"/>
</filter>
<filter id="filter8_f_244_38" x="-379" y="234" width="993" height="1053" filterUnits="userSpaceOnUse" color-interpolation-filters="sRGB">
<feFlood flood-opacity="0" result="BackgroundImageFix"/>
<feBlend mode="normal" in="SourceGraphic" in2="BackgroundImageFix" result="shape"/>
<feGaussianBlur stdDeviation="150" result="effect1_foregroundBlur_244_38"/>
</filter>
</defs>
</svg>
