<svg width="116" height="130" viewBox="0 0 116 130" fill="none" xmlns="http://www.w3.org/2000/svg">
<path d="M61.25 2.60845L110.408 30.9896C112.419 32.1508 113.658 34.2966 113.658 36.6188V93.3812C113.658 95.7034 112.419 97.8493 110.408 99.0104L61.25 127.392C59.2389 128.553 56.7611 128.553 54.75 127.392L5.59231 99.0104C3.58121 97.8493 2.34232 95.7034 2.34232 93.3812V36.6188C2.34232 34.2966 3.58121 32.1508 5.59232 30.9896L54.75 2.60844C56.7611 1.44733 59.2389 1.44733 61.25 2.60845Z" stroke="white" stroke-width="3"/>
<path d="M73.3789 55.9965L74.2052 56.9262L75.2717 56.2862L90.2717 47.2862L91.3465 46.6414L90.9029 45.4692C88.3714 38.7788 78.085 26 57 26C43.7766 26 34.2365 31.5953 28.0311 39.1072C21.8631 46.5736 19 55.9147 19 63.5C19 72.2769 21.7043 82.3766 28.0806 90.3144C34.4975 98.3028 44.557 104 59 104C67.1077 104 74.3913 101.125 80.1413 97.3127C85.8741 93.5123 90.187 88.7119 92.3235 84.7059L93.0069 83.4246L91.7484 82.7001L75.2484 73.2001L73.8983 72.4227L73.1726 73.8014C71.7051 76.5896 66.3247 82.5 57 82.5C45.5772 82.5 40 72.9444 40 65C40 61.234 42.0248 56.8323 45.2847 53.3353C48.5396 49.8437 52.7942 47.5 57 47.5C60.4215 47.5 63.8561 48.8587 66.8222 50.6576C69.7789 52.4508 72.1396 54.6024 73.3789 55.9965ZM87 57.5H85.5V59V61.5H83H81.5V63V67V68.5H83H85.5V71V72.5H87H91H92.5V71V68.5H95H96.5V67V63V61.5H95H92.5V59V57.5H91H87ZM103 57.5H101.5V59V61.5H99H97.5V63V67V68.5H99H101.5V71V72.5H103H107H108.5V71V68.5H111H112.5V67V63V61.5H111H108.5V59V57.5H107H103Z" stroke="white" stroke-width="3"/>
<path fill-rule="evenodd" clip-rule="evenodd" d="M112.5 60.5V33L58 2L4 33V96L58 128L112.5 96V68.5L106.5 72.5H101L99.5 68.5H93.5L91.5 72.5H86.5L84.5 68.5H80.5V60.5H84.5L86.5 57L91.5 55.5L93.5 60.5L98.5 61.5L102.5 55.5L108.5 57V60.5H112.5ZM93.5 47L76 57C77.5 62.5 67 47 56 47C39.5 52.5 39 63 41.5 72.5C53.9 89.3 68.6667 79.5 74.5 72.5L93.5 82.5L91 86.5L85.5 95L76 99.5L67 103L56 105L45 103L29 93L23.5 85.5L20.5 77L18 70V60.5L20.5 50L29 37.5L39 29L54 25L69 26.5L87.5 39L93.5 47Z" fill="white" stroke="white"/>
</svg>
