<svg width="64" height="52" viewBox="0 0 64 52" fill="none" xmlns="http://www.w3.org/2000/svg">
<path fill-rule="evenodd" clip-rule="evenodd" d="M20.7586 50.7036C19.2503 50.018 18.5833 48.2394 19.2689 46.7311L39.2689 2.7311C39.9545 1.22276 41.7331 0.5558 43.2414 1.24141C44.7498 1.92702 45.4167 3.70558 44.7311 5.21392L24.7311 49.2139C24.0455 50.7223 22.2669 51.3892 20.7586 50.7036Z" fill="#7F37FF"/>
<path fill-rule="evenodd" clip-rule="evenodd" d="M46.8787 12.8512C48.0503 11.6796 49.9497 11.6796 51.1213 12.8512L63.1213 24.8512C64.2929 26.0228 64.2929 27.9223 63.1213 29.0938L51.1213 41.0938C49.9498 42.2654 48.0503 42.2654 46.8787 41.0938C45.7071 39.9223 45.7071 38.0228 46.8787 36.8512L56.7574 26.9725L46.8787 17.0938C45.7071 15.9223 45.7071 14.0228 46.8787 12.8512Z" fill="#7F37FF"/>
<path fill-rule="evenodd" clip-rule="evenodd" d="M17.1213 11.8512C15.9497 10.6796 14.0503 10.6796 12.8787 11.8512L0.878679 23.8512C-0.292893 25.0228 -0.292892 26.9223 0.878681 28.0938L12.8787 40.0938C14.0502 41.2654 15.9497 41.2654 17.1213 40.0938C18.2929 38.9223 18.2929 37.0228 17.1213 35.8512L7.24264 25.9725L17.1213 16.0938C18.2929 14.9223 18.2929 13.0228 17.1213 11.8512Z" fill="#7F37FF"/>
</svg>
