<svg width="130" height="92" viewBox="0 0 130 92" fill="none" xmlns="http://www.w3.org/2000/svg">
<path d="M8.06228 2.56228C8.22895 2.06228 9.06228 1.06228 11.0623 1.06228H119.062C119.396 0.895613 120.362 0.962279 121.562 2.56228C119.562 4.96226 86.0623 38.8956 69.5623 55.5623C68.2289 57.0623 64.6623 59.1623 61.0623 55.5623L8.06228 2.56228Z" fill="white"/>
<path d="M1.06228 10.5623C0.895613 10.0623 0.962279 8.76226 2.56228 7.56226L41.0623 46.0623L2.56228 84.5623C2.06228 84.3956 1.06228 83.1623 1.06228 79.5623V10.5623Z" fill="white"/>
<path d="M46.0623 51.5623L61.0623 65.0623C62.729 66.0623 66.7623 67.4623 69.5623 65.0623C72.3623 62.6623 80.3956 55.0623 84.0623 51.5623L122.562 89.5623C122.896 90.0623 122.362 91.0623 117.562 91.0623H12.5623C12.0623 91.2289 10.4623 91.1623 8.06228 89.5623C11.6623 85.5623 34.8956 62.5623 46.0623 51.5623Z" fill="white"/>
<path d="M89.0623 46.0623L127.062 84.5623C127.729 84.7289 129.062 83.9623 129.062 79.5623V10.5623C129.229 10.0623 129.062 8.76226 127.062 7.56226C123.462 11.5623 100.229 34.8956 89.0623 46.0623Z" fill="white"/>
<path d="M8.06228 2.56228C8.22895 2.06228 9.06228 1.06228 11.0623 1.06228M8.06228 2.56228C24.2289 18.7289 57.4623 51.9623 61.0623 55.5623M8.06228 2.56228L61.0623 55.5623M11.0623 1.06228C13.0623 1.06228 83.8956 1.06228 119.062 1.06228M11.0623 1.06228H119.062M119.062 1.06228C119.396 0.895613 120.362 0.962279 121.562 2.56228C119.562 4.96226 86.0623 38.8956 69.5623 55.5623C68.2289 57.0623 64.6623 59.1623 61.0623 55.5623M1.06228 10.5623C0.895613 10.0623 0.962279 8.76226 2.56228 7.56226M1.06228 10.5623C1.06228 32.0623 1.06228 75.9623 1.06228 79.5623M1.06228 10.5623V79.5623M2.56228 7.56226C6.96228 11.9623 30.0623 35.0623 41.0623 46.0623M2.56228 7.56226L41.0623 46.0623M41.0623 46.0623L2.56228 84.5623C2.06228 84.3956 1.06228 83.1623 1.06228 79.5623M117.562 91.0623C122.362 91.0623 122.896 90.0623 122.562 89.5623L84.0623 51.5623C80.3956 55.0623 72.3623 62.6623 69.5623 65.0623C66.7623 67.4623 62.729 66.0623 61.0623 65.0623L46.0623 51.5623C34.8956 62.5623 11.6623 85.5623 8.06228 89.5623C10.4623 91.1623 12.0623 91.2289 12.5623 91.0623M117.562 91.0623C112.762 91.0623 45.5623 91.0623 12.5623 91.0623M117.562 91.0623H12.5623M129.062 79.5623C129.062 83.9623 127.729 84.7289 127.062 84.5623L89.0623 46.0623C100.229 34.8956 123.462 11.5623 127.062 7.56226C129.062 8.76226 129.229 10.0623 129.062 10.5623M129.062 79.5623C129.062 75.1623 129.062 31.7289 129.062 10.5623M129.062 79.5623V10.5623" stroke="white" stroke-width="0.5"/>
</svg>
