<svg width="66" height="102" viewBox="0 0 66 102" fill="none" xmlns="http://www.w3.org/2000/svg">
<path d="M0 51C0 42.7157 6.71573 36 15 36H30V66H15C6.71573 66 0 59.2843 0 51V51Z" fill="white"/>
<path d="M0 87C0 78.7157 6.71573 72 15 72H30V87C30 95.2843 23.2843 102 15 102V102C6.71573 102 0 95.2843 0 87V87Z" fill="white"/>
<path d="M0 15C0 6.71573 6.71573 0 15 0H30V30H15C6.71573 30 0 23.2843 0 15V15Z" fill="white"/>
<path d="M66 15C66 6.71573 59.2843 0 51 0H36V30H51C59.2843 30 66 23.2843 66 15V15Z" fill="white"/>
<path d="M66 51C66 42.7157 59.2843 36 51 36V36C42.7157 36 36 42.7157 36 51V51C36 59.2843 42.7157 66 51 66V66C59.2843 66 66 59.2843 66 51V51Z" fill="white"/>
</svg>
