<svg width="129" height="126" viewBox="0 0 129 126" fill="none" xmlns="http://www.w3.org/2000/svg">
<path d="M31.0049 43.5C30.0049 40.5 28.6049 33 31.0049 27C40.6049 27 46.005 31.3333 47.505 33.5C52.8383 31.6667 66.905 29.1 80.505 33.5C85.305 28.3 94.1716 27 98.005 27C99.1716 29.3333 100.805 35.9 98.005 43.5C104.405 49.1 105.338 58.5 105.005 62.5C104.672 67.8333 102.805 79.6 98.005 84C92.005 89.5 82.505 92.5 77.005 93C79.805 95.4 80.505 99.6667 80.505 101.5V122.5C80.8383 123.667 82.105 125.8 84.505 125C87.505 124 131.005 109 128.505 62.5C126.005 16 90.005 0 64.005 0C38.005 0 0.504954 20.5 0.00495404 62.5C-0.495046 104.5 37.005 123.5 43.505 125C47.905 126.2 49.005 123.833 49.005 122.5V111C45.1717 112 35.905 112.6 29.505 107C26.505 104 27.505 103 25.005 98C23.005 94 20.505 93 19.505 93C18.1717 92.1667 16.305 90.2 19.505 89C23.905 89 27.3383 92.3333 28.505 94C30.3383 98.5 38.205 106.3 49.005 101.5C49.005 97.5 51.505 94.1667 53.505 93C48.005 92.6667 35.8049 90.4 31.0049 84C25.005 76 24.505 71 23.505 62.5C23.505 53 28.5048 45 31.0049 43.5Z" fill="#020106"/>
</svg>
