<svg width="113" height="128" viewBox="0 0 113 128" fill="none" xmlns="http://www.w3.org/2000/svg">
<path d="M99 18.5V12H92.5H20H13.0242L13.5162 18.9585L17.0162 68.4585L17.4434 74.5H23.5H67.1392L66.7388 81.9059L56.9017 85.5949L46 81.8571V76.5H39.5H25H18.2797L18.5036 83.2165L19.0036 98.2165L19.1566 102.806L23.5332 104.195L55.0332 114.195L57.0322 114.83L59.0251 114.176L89.5251 104.176L93.6971 102.809L93.9859 98.4276L96.9859 52.9276L97.4427 46H90.5H43.6364L43.3488 40.5H92.5H99V34V18.5Z" stroke="white" stroke-width="13" stroke-linecap="round"/>
<path d="M12.7459 107.779L5.3716 5H107.176L100.721 107.823L57.476 122.238L12.7459 107.779Z" stroke="white" stroke-width="10"/>
</svg>
