<svg width="60" height="64" viewBox="0 0 60 64" fill="none" xmlns="http://www.w3.org/2000/svg">
<path fill-rule="evenodd" clip-rule="evenodd" d="M34 54H26V58H34V54ZM26 50C23.7909 50 22 51.7909 22 54V58C22 60.2091 23.7909 62 26 62H34C36.2091 62 38 60.2091 38 58V54C38 51.7909 36.2091 50 34 50H26Z" fill="#7F37FF"/>
<path d="M32 62C32 63.1046 31.1046 64 30 64C28.8954 64 28 63.1046 28 62C28 60.8954 28.8954 60 30 60C31.1046 60 32 60.8954 32 62Z" fill="#7F37FF"/>
<path d="M40 34C40 35.1046 39.1046 36 38 36C36.8954 36 36 35.1046 36 34C36 32.8954 36.8954 32 38 32C39.1046 32 40 32.8954 40 34Z" fill="#7F37FF"/>
<path fill-rule="evenodd" clip-rule="evenodd" d="M30 -8.74228e-08C31.1046 -3.91405e-08 32 0.89543 32 2L32 5C32 6.10457 31.1046 7 30 7C28.8954 7 28 6.10457 28 5L28 2C28 0.89543 28.8954 -1.35705e-07 30 -8.74228e-08Z" fill="#7F37FF"/>
<path fill-rule="evenodd" clip-rule="evenodd" d="M60 30C60 31.1046 59.1046 32 58 32H55C53.8954 32 53 31.1046 53 30C53 28.8954 53.8954 28 55 28H58C59.1046 28 60 28.8954 60 30Z" fill="#7F37FF"/>
<path fill-rule="evenodd" clip-rule="evenodd" d="M7 30C7 31.1046 6.10457 32 5 32H2C0.895431 32 0 31.1046 0 30C0 28.8954 0.895431 28 2 28H5C6.10457 28 7 28.8954 7 30Z" fill="#7F37FF"/>
<path fill-rule="evenodd" clip-rule="evenodd" d="M51.4142 8.58579C52.1953 9.36684 52.1953 10.6332 51.4142 11.4142L49.2929 13.5355C48.5118 14.3166 47.2455 14.3166 46.4645 13.5355C45.6834 12.7545 45.6834 11.4882 46.4645 10.7071L48.5858 8.58579C49.3668 7.80474 50.6332 7.80474 51.4142 8.58579Z" fill="#7F37FF"/>
<path fill-rule="evenodd" clip-rule="evenodd" d="M8.46447 8.58579C7.68342 9.36684 7.68342 10.6332 8.46447 11.4142L10.5858 13.5355C11.3668 14.3166 12.6332 14.3166 13.4142 13.5355C14.1953 12.7545 14.1953 11.4882 13.4142 10.7071L11.2929 8.58579C10.5118 7.80474 9.24552 7.80474 8.46447 8.58579Z" fill="#7F37FF"/>
<path fill-rule="evenodd" clip-rule="evenodd" d="M8.46447 51.5355C7.68342 50.7545 7.68342 49.4882 8.46447 48.7071L10.5858 46.5858C11.3668 45.8047 12.6332 45.8047 13.4142 46.5858C14.1953 47.3668 14.1953 48.6332 13.4142 49.4142L11.2929 51.5355C10.5118 52.3166 9.24552 52.3166 8.46447 51.5355Z" fill="#7F37FF"/>
<path fill-rule="evenodd" clip-rule="evenodd" d="M51.4142 51.5355C52.1953 50.7545 52.1953 49.4882 51.4142 48.7071L49.2929 46.5858C48.5118 45.8047 47.2455 45.8047 46.4645 46.5858C45.6834 47.3668 45.6834 48.6332 46.4645 49.4142L48.5858 51.5355C49.3668 52.3166 50.6332 52.3166 51.4142 51.5355Z" fill="#7F37FF"/>
<path fill-rule="evenodd" clip-rule="evenodd" d="M32.8248 23.5704C31.5125 22.9975 30.1158 22.9254 29.1425 22.9949C28.0407 23.0736 27.0838 22.2443 27.0051 21.1425C26.9264 20.0407 27.7557 19.0838 28.8575 19.0051C30.2176 18.9079 32.3208 18.9858 34.4252 19.9046C36.5944 20.8516 38.6634 22.6535 39.8667 25.782C40.2632 26.813 39.7489 27.9702 38.718 28.3667C37.687 28.7632 36.5298 28.2489 36.1333 27.218C35.3366 25.1465 34.0723 24.1151 32.8248 23.5704Z" fill="#7F37FF"/>
<path fill-rule="evenodd" clip-rule="evenodd" d="M29.5 15.5C23.653 15.5 15.9254 20.6259 15.4972 29.6189C15.3352 33.0205 16.7837 36.2006 18.8351 38.8803C20.8872 41.5609 23.3682 43.5055 24.7862 44.3563C25.5393 44.8081 26 45.6218 26 46.5V49.4991L34 49.5V46C34 45.0531 34.535 44.1874 35.382 43.7639C38.329 42.2904 44.5 37.3294 44.5 29.5C44.5 24.6173 42.3116 21.1926 39.3524 18.9204C36.3146 16.5878 32.4824 15.5 29.5 15.5ZM10.5028 29.3811C11.0746 17.3741 21.347 10.5 29.5 10.5C33.5176 10.5 38.4354 11.9122 42.3976 14.9546C46.4384 18.0574 49.5 22.8827 49.5 29.5C49.5 38.9001 43.0453 44.9275 39 47.4549V50C39 50.5086 38.9008 51.4173 38.4642 52.2979C37.9803 53.2741 36.8873 54.5 35 54.5H25C24.1727 54.5 23.1561 54.1954 22.3312 53.4035C21.4429 52.5507 21 51.3537 21 50V47.8473C19.1727 46.5545 16.8545 44.5186 14.8649 41.9197C12.3996 38.6994 10.2648 34.3795 10.5028 29.3811Z" fill="#7F37FF"/>
</svg>
