<svg width="128" height="128" viewBox="0 0 128 128" fill="none" xmlns="http://www.w3.org/2000/svg">
<path fill-rule="evenodd" clip-rule="evenodd" d="M0 0H128V128H0V0ZM114 67.5L105.5 73.5C103.5 70.5 101 68.5 98 68.5C95 68.5 91 70.5 91 73.5C91 76.5 91.5715 78.8215 98 81.5C116 89 118 94.5 118 101.5C118 108.5 114 118.5 98 118C85.2 117.6 78.6667 110.167 77 106.5L86 101.5C90.5 106 93 108 98 108C104 108 106.5 105.5 106.5 101.5C106.5 97.5 101.5 95.0882 97 93.5C80 87.5 80 79 80 73.5C80 68 84 59 97 58.5C107.4 58.1 112.667 64.3333 114 67.5ZM69.5 59.5H58V101.5C58 105 55 108 51 108C46.2 108 44 104.333 43 102.5L34.5 108C35 111.333 42.5 118 52 118C64.8 118 69 109.333 69.5 105V59.5Z" fill="white"/>
</svg>
