<svg width="56" height="52" viewBox="0 0 56 52" fill="none" xmlns="http://www.w3.org/2000/svg">
<line x1="2" y1="49.4725" x2="54" y2="49.4725" stroke="#7F37FF" stroke-width="4" stroke-linecap="round"/>
<rect x="17.2238" y="30.2842" width="34.2119" height="11.2579" rx="1" transform="rotate(-44.9091 17.2238 30.2842)" fill="#7F37FF"/>
<path d="M25 37.4725L18 30.4725C15.8333 34.3058 11.9 42.0725 13.5 42.4725C15.1 42.8725 21.8333 39.3058 25 37.4725Z" fill="#7F37FF"/>
<path d="M19 29.4725C18 29.4725 13.5 35.4725 12.5 42.9725C20.02 42.1125 26.9688 36.5493 27 35.4725M18 30.4725L25 37.4725C21.8333 39.3058 15.1 42.8725 13.5 42.4725C11.9 42.0725 15.8333 34.3058 18 30.4725Z" stroke="#7F37FF" stroke-linecap="round" stroke-linejoin="round"/>
<path d="M45.0866 2.76199C46.5929 1.23658 49.0506 1.22109 50.576 2.72738L53.1264 5.24588C54.6518 6.75217 54.6673 9.20984 53.161 10.7352V10.7352C52.6589 11.2437 51.8397 11.2489 51.3312 10.7468L45.0981 4.59177C44.5897 4.08968 44.5845 3.27045 45.0866 2.76199V2.76199Z" fill="#7F37FF"/>
</svg>
