<svg width="153" height="22" viewBox="0 0 153 22" fill="none" xmlns="http://www.w3.org/2000/svg">
<path d="M10.272 18.736C10.208 18.736 10.136 18.72 10.056 18.688C9.97602 18.64 9.89602 18.592 9.81602 18.544L1.44002 12.832C1.21602 12.672 1.04002 12.52 0.912019 12.376C0.800019 12.216 0.744019 12.016 0.744019 11.776V11.128C0.744019 10.888 0.800019 10.696 0.912019 10.552C1.04002 10.392 1.21602 10.232 1.44002 10.072L9.81602 4.35999C9.89602 4.32799 9.97602 4.29599 10.056 4.26399C10.136 4.21599 10.208 4.19199 10.272 4.19199C10.4 4.19199 10.512 4.23999 10.608 4.33599C10.704 4.41599 10.752 4.52799 10.752 4.67199V6.87999C10.752 7.10399 10.688 7.28799 10.56 7.43199C10.432 7.55999 10.288 7.67199 10.128 7.76799L4.58402 11.464L10.128 15.16C10.288 15.256 10.432 15.368 10.56 15.496C10.688 15.624 10.752 15.808 10.752 16.048V18.232C10.752 18.392 10.704 18.52 10.608 18.616C10.512 18.696 10.4 18.736 10.272 18.736Z" fill="white"/>
<path d="M13.6144 21.016C13.4704 21.016 13.3504 20.96 13.2544 20.848C13.1584 20.752 13.1104 20.64 13.1104 20.512C13.1104 20.432 13.1264 20.352 13.1584 20.272L21.3184 0.687986C21.3664 0.559986 21.4464 0.439986 21.5584 0.327985C21.6864 0.199986 21.8704 0.135986 22.1104 0.135986H23.9584C24.1024 0.135986 24.2224 0.191986 24.3184 0.303986C24.4144 0.399985 24.4624 0.511985 24.4624 0.639986C24.4624 0.703986 24.4464 0.783986 24.4144 0.879985L16.2304 20.464C16.1824 20.576 16.0944 20.696 15.9664 20.824C15.8544 20.952 15.6704 21.016 15.4144 21.016H13.6144Z" fill="white"/>
<path d="M28.7338 19C28.5738 19 28.4298 18.944 28.3018 18.832C28.1898 18.72 28.1338 18.576 28.1338 18.4V2.79999C28.1338 2.62399 28.1898 2.47999 28.3018 2.36799C28.4298 2.25599 28.5738 2.19999 28.7338 2.19999H30.9658C31.2058 2.19999 31.3818 2.26399 31.4938 2.39199C31.6218 2.51999 31.7098 2.61599 31.7578 2.67999L36.1738 10.816L40.6378 2.67999C40.6698 2.61599 40.7418 2.51999 40.8538 2.39199C40.9818 2.26399 41.1658 2.19999 41.4058 2.19999H43.6378C43.8138 2.19999 43.9578 2.25599 44.0698 2.36799C44.1818 2.47999 44.2378 2.62399 44.2378 2.79999V18.4C44.2378 18.576 44.1818 18.72 44.0698 18.832C43.9578 18.944 43.8138 19 43.6378 19H41.1898C41.0298 19 40.8938 18.944 40.7818 18.832C40.6698 18.72 40.6138 18.576 40.6138 18.4V8.70399L37.5658 14.416C37.4858 14.56 37.3818 14.688 37.2538 14.8C37.1258 14.912 36.9578 14.968 36.7498 14.968H35.6218C35.4138 14.968 35.2458 14.912 35.1178 14.8C34.9898 14.688 34.8858 14.56 34.8058 14.416L31.7578 8.70399V18.4C31.7578 18.576 31.7018 18.72 31.5898 18.832C31.4778 18.944 31.3418 19 31.1818 19H28.7338Z" fill="white"/>
<path d="M48.1961 19C48.0201 19 47.8761 18.944 47.7641 18.832C47.6521 18.72 47.5961 18.576 47.5961 18.4V15.712C47.5961 15.536 47.6521 15.392 47.7641 15.28C47.8761 15.168 48.0201 15.112 48.1961 15.112H50.8841C51.0601 15.112 51.2041 15.168 51.3161 15.28C51.4281 15.392 51.4841 15.536 51.4841 15.712V18.4C51.4841 18.576 51.4281 18.72 51.3161 18.832C51.2041 18.944 51.0601 19 50.8841 19H48.1961Z" fill="white"/>
<path d="M61.1338 19C60.9738 19 60.8298 18.944 60.7018 18.832C60.5898 18.72 60.5338 18.576 60.5338 18.4V2.79999C60.5338 2.62399 60.5898 2.47999 60.7018 2.36799C60.8298 2.25599 60.9738 2.19999 61.1338 2.19999H63.3658C63.6058 2.19999 63.7818 2.26399 63.8938 2.39199C64.0218 2.51999 64.1098 2.61599 64.1578 2.67999L68.5738 10.816L73.0378 2.67999C73.0698 2.61599 73.1418 2.51999 73.2538 2.39199C73.3818 2.26399 73.5658 2.19999 73.8058 2.19999H76.0378C76.2138 2.19999 76.3578 2.25599 76.4698 2.36799C76.5818 2.47999 76.6378 2.62399 76.6378 2.79999V18.4C76.6378 18.576 76.5818 18.72 76.4698 18.832C76.3578 18.944 76.2138 19 76.0378 19H73.5898C73.4298 19 73.2938 18.944 73.1818 18.832C73.0698 18.72 73.0138 18.576 73.0138 18.4V8.70399L69.9658 14.416C69.8858 14.56 69.7818 14.688 69.6538 14.8C69.5258 14.912 69.3578 14.968 69.1498 14.968H68.0218C67.8138 14.968 67.6458 14.912 67.5178 14.8C67.3898 14.688 67.2858 14.56 67.2058 14.416L64.1578 8.70399V18.4C64.1578 18.576 64.1018 18.72 63.9898 18.832C63.8778 18.944 63.7418 19 63.5818 19H61.1338Z" fill="white"/>
<path d="M87.1699 19.24C85.7139 19.24 84.4579 19 83.4019 18.52C82.3459 18.04 81.5219 17.32 80.9299 16.36C80.3379 15.384 80.0179 14.16 79.9699 12.688C79.9539 12 79.9459 11.32 79.9459 10.648C79.9459 9.95999 79.9539 9.26399 79.9699 8.55999C80.0179 7.11999 80.3379 5.91199 80.9299 4.93599C81.5379 3.94399 82.3699 3.19999 83.4259 2.70399C84.4979 2.20799 85.7459 1.95999 87.1699 1.95999C88.5779 1.95999 89.8099 2.20799 90.8659 2.70399C91.9379 3.19999 92.7779 3.94399 93.3859 4.93599C93.9939 5.91199 94.3139 7.11999 94.3459 8.55999C94.3779 9.26399 94.3939 9.95999 94.3939 10.648C94.3939 11.32 94.3779 12 94.3459 12.688C94.2979 14.16 93.9779 15.384 93.3859 16.36C92.7939 17.32 91.9699 18.04 90.9139 18.52C89.8579 19 88.6099 19.24 87.1699 19.24ZM87.1699 16.144C88.0979 16.144 88.8579 15.864 89.4499 15.304C90.0579 14.728 90.3779 13.816 90.4099 12.568C90.4419 11.864 90.4579 11.208 90.4579 10.6C90.4579 9.97599 90.4419 9.31999 90.4099 8.63199C90.3939 7.79999 90.2419 7.11999 89.9539 6.59199C89.6659 6.06399 89.2819 5.67999 88.8019 5.43999C88.3379 5.18399 87.7939 5.05599 87.1699 5.05599C86.5459 5.05599 85.9939 5.18399 85.5139 5.43999C85.0339 5.67999 84.6499 6.06399 84.3619 6.59199C84.0899 7.11999 83.9379 7.79999 83.9059 8.63199C83.8899 9.31999 83.8819 9.97599 83.8819 10.6C83.8819 11.208 83.8899 11.864 83.9059 12.568C83.9539 13.816 84.2739 14.728 84.8659 15.304C85.4579 15.864 86.2259 16.144 87.1699 16.144Z" fill="white"/>
<path d="M98.2729 19C98.0969 19 97.9529 18.944 97.8409 18.832C97.7289 18.72 97.6729 18.576 97.6729 18.4V2.79999C97.6729 2.62399 97.7289 2.47999 97.8409 2.36799C97.9529 2.25599 98.0969 2.19999 98.2729 2.19999H104.633C106.633 2.19999 108.209 2.66399 109.361 3.59199C110.513 4.50399 111.089 5.82399 111.089 7.55199C111.089 8.71999 110.809 9.69599 110.249 10.48C109.689 11.264 108.937 11.848 107.993 12.232L111.377 18.232C111.425 18.328 111.449 18.416 111.449 18.496C111.449 18.624 111.401 18.744 111.305 18.856C111.209 18.952 111.089 19 110.945 19H108.281C107.993 19 107.777 18.928 107.633 18.784C107.489 18.624 107.385 18.48 107.321 18.352L104.393 12.856H101.489V18.4C101.489 18.576 101.433 18.72 101.321 18.832C101.209 18.944 101.065 19 100.889 19H98.2729ZM101.489 9.80799H104.561C105.441 9.80799 106.089 9.60799 106.505 9.20799C106.937 8.80799 107.153 8.24799 107.153 7.52799C107.153 6.80799 106.945 6.23999 106.529 5.82399C106.113 5.40799 105.457 5.19999 104.561 5.19999H101.489V9.80799Z" fill="white"/>
<path d="M113.348 19C113.204 19 113.084 18.952 112.988 18.856C112.892 18.744 112.844 18.624 112.844 18.496C112.844 18.416 112.852 18.344 112.868 18.28L118.58 2.84799C118.628 2.67199 118.724 2.51999 118.868 2.39199C119.012 2.26399 119.212 2.19999 119.468 2.19999H122.54C122.796 2.19999 122.996 2.26399 123.14 2.39199C123.284 2.51999 123.38 2.67199 123.428 2.84799L129.14 18.28C129.156 18.344 129.164 18.416 129.164 18.496C129.164 18.624 129.116 18.744 129.02 18.856C128.924 18.952 128.804 19 128.66 19H126.164C125.924 19 125.748 18.944 125.636 18.832C125.524 18.72 125.452 18.616 125.42 18.52L124.388 15.832H117.62L116.588 18.52C116.556 18.616 116.484 18.72 116.372 18.832C116.26 18.944 116.084 19 115.844 19H113.348ZM118.508 12.736H123.476L121.004 5.82399L118.508 12.736Z" fill="white"/>
<path d="M132.131 19C131.955 19 131.811 18.944 131.699 18.832C131.587 18.72 131.531 18.576 131.531 18.4V2.79999C131.531 2.62399 131.587 2.47999 131.699 2.36799C131.811 2.25599 131.955 2.19999 132.131 2.19999H134.843C135.019 2.19999 135.163 2.25599 135.275 2.36799C135.387 2.47999 135.443 2.62399 135.443 2.79999V18.4C135.443 18.576 135.387 18.72 135.275 18.832C135.163 18.944 135.019 19 134.843 19H132.131Z" fill="white"/>
<path d="M145.332 19.24C143.796 19.24 142.508 19.016 141.468 18.568C140.444 18.12 139.668 17.536 139.14 16.816C138.612 16.096 138.332 15.328 138.3 14.512C138.3 14.384 138.348 14.272 138.444 14.176C138.54 14.064 138.66 14.008 138.804 14.008H141.372C141.58 14.008 141.74 14.056 141.852 14.152C141.964 14.232 142.068 14.336 142.164 14.464C142.276 14.736 142.452 15 142.692 15.256C142.948 15.512 143.292 15.728 143.724 15.904C144.156 16.064 144.692 16.144 145.332 16.144C146.372 16.144 147.148 15.976 147.66 15.64C148.188 15.304 148.452 14.848 148.452 14.272C148.452 13.856 148.308 13.52 148.02 13.264C147.748 13.008 147.308 12.776 146.7 12.568C146.108 12.36 145.316 12.136 144.324 11.896C143.124 11.64 142.1 11.312 141.252 10.912C140.42 10.496 139.788 9.96799 139.356 9.32799C138.94 8.67199 138.732 7.86399 138.732 6.90399C138.732 5.94399 138.996 5.09599 139.524 4.35999C140.052 3.60799 140.796 3.02399 141.756 2.60799C142.716 2.17599 143.86 1.95999 145.188 1.95999C146.26 1.95999 147.204 2.10399 148.02 2.39199C148.852 2.67999 149.54 3.05599 150.084 3.51999C150.644 3.98399 151.068 4.47999 151.356 5.00799C151.644 5.53599 151.796 6.04799 151.812 6.54399C151.812 6.67199 151.764 6.79199 151.668 6.90399C151.572 6.99999 151.452 7.04799 151.308 7.04799H148.62C148.46 7.04799 148.316 7.01599 148.188 6.95199C148.06 6.88799 147.956 6.77599 147.876 6.61599C147.78 6.19999 147.492 5.83999 147.012 5.53599C146.548 5.21599 145.94 5.05599 145.188 5.05599C144.404 5.05599 143.78 5.19999 143.316 5.48799C142.868 5.77599 142.644 6.21599 142.644 6.80799C142.644 7.19199 142.756 7.51999 142.98 7.79199C143.22 8.04799 143.612 8.27999 144.156 8.48799C144.716 8.67999 145.452 8.89599 146.364 9.13599C147.772 9.42399 148.916 9.76799 149.796 10.168C150.676 10.568 151.324 11.088 151.74 11.728C152.156 12.352 152.364 13.144 152.364 14.104C152.364 15.176 152.06 16.096 151.452 16.864C150.86 17.632 150.036 18.224 148.98 18.64C147.94 19.04 146.724 19.24 145.332 19.24Z" fill="white"/>
</svg>
